# Blender v2.73 (sub 0) OBJ File: ''
# www.blender.org
mtllib fontus.mtl
o Curve
v 0.509477 0.534365 -0.265682
v 0.654105 0.794680 -0.265682
v 0.162087 0.794680 -0.265682
v 0.162087 1.145104 -0.265682
v 0.860531 1.145104 -0.265682
v 1.011754 1.405419 -0.265682
v -0.177395 1.405419 -0.265682
v -0.177395 -0.052345 -0.265682
v 0.162088 -0.052345 -0.265682
v 0.162087 0.534365 -0.265682
v 0.509477 0.534365 0.134318
v 0.654105 0.794680 0.134318
v 0.162088 0.794680 0.134318
v 0.162087 1.145104 0.134318
v 0.860531 1.145104 0.134318
v 1.011754 1.405419 0.134318
v -0.177395 1.405419 0.134318
v -0.177395 -0.052345 0.134318
v 0.162088 -0.052345 0.134318
v 0.162088 0.534365 0.134318
v 0.509477 0.534365 0.134318
v 0.509477 0.534365 -0.265682
v 0.654105 0.794680 0.134318
v 0.654105 0.794680 -0.265682
v 0.162088 0.794680 0.134318
v 0.162087 0.794680 -0.265682
v 0.162087 1.145104 0.134318
v 0.162087 1.145104 -0.265682
v 0.860531 1.145104 0.134318
v 0.860531 1.145104 -0.265682
v 1.011754 1.405419 0.134318
v 1.011754 1.405419 -0.265682
v -0.177395 1.405419 0.134318
v -0.177395 1.405419 -0.265682
v -0.177395 -0.052345 0.134318
v -0.177395 -0.052345 -0.265682
v 0.162088 -0.052345 0.134318
v 0.162088 -0.052345 -0.265682
v 0.162088 0.534365 0.134318
v 0.162087 0.534365 -0.265682
vn -0.000000 0.000000 -1.000000
vn 0.000000 -0.000000 1.000000
vn 0.507100 -0.861900 0.000000
vn 0.861900 0.507100 0.000000
vn 0.707100 0.707100 -0.000000
vn 0.707100 -0.707100 -0.000000
vn 0.498800 -0.866700 0.000000
vn 0.866700 0.498800 0.000000
vn -0.707100 0.707100 0.000000
vn -0.707100 -0.707100 0.000000
usemtl SVGMat
s off
f 7//1 9//1 8//1
f 7//1 10//1 9//1
f 7//1 3//1 10//1
f 3//1 1//1 10//1
f 3//1 2//1 1//1
f 7//1 4//1 3//1
f 7//1 5//1 4//1
f 7//1 6//1 5//1
f 19//2 17//2 18//2
f 20//2 17//2 19//2
f 13//2 17//2 20//2
f 11//2 13//2 20//2
f 12//2 13//2 11//2
f 14//2 17//2 13//2
f 15//2 17//2 14//2
f 16//2 17//2 15//2
s 1
f 22//3 24//4 23//4 21//3
f 24//4 26//5 25//5 23//4
f 26//5 28//6 27//6 25//5
f 28//6 30//7 29//7 27//6
f 30//7 32//8 31//8 29//7
f 32//8 34//9 33//9 31//8
f 34//9 36//10 35//10 33//9
f 36//10 38//6 37//6 35//10
f 38//6 40//6 39//6 37//6
f 40//6 22//3 21//3 39//6
